<svg version="1.1" id="Layer_1" xmlns="http://www.w3.org/2000/svg" x="0" y="0" viewBox="0 0 576 512" xml:space="preserve"><path d="M558.9 143.1L296.3 405.7l-90.4 10c-26.2 2.9-48.5-19.2-45.6-45.6l10-90.4L432.9 17.1c22.9-22.9 59.9-22.9 82.7 0l43.2 43.2c22.9 22.9 22.9 60 .1 82.8zM460.1 174L402 115.9 216.2 301.8l-7.3 65.3 65.3-7.3L460.1 174zm64.8-79.7l-43.2-43.2c-4.1-4.1-10.8-4.1-14.8 0L436 82l58.1 58.1 30.9-30.9c4-4.2 4-10.8-.1-14.9zM320.7 85v4.6L298.5 112H21c-11.5 0-21-9.5-21-21v-6c0-11.5 9.5-21 21-21h278.7c11.6 0 21 9.5 21 21zM217 197.3l-43.4 48H21c-11.5 0-21-9.5-21-21v-6c0-11.5 9.5-21 21-21h196zm-84.2 133.4l-2.4 48H21c-11.5 0-21-9.5-21-21v-6c0-11.5 9.5-21 21-21h111.8zM456.5 512H21c-11.6 0-21-9.5-21-21v-6c0-11.5 9.4-21 21-21h435.5c11.5 0 21 9.5 21 21v6c0 11.5-9.5 21-21 21zm21-160.3v6c0 11.6-9.4 21-21 21h-87.8c15.8-15.8 33.1-33.1 47.9-48h39.9c11.5 0 21 9.4 21 21z" fill="#fff"/></svg>