<svg version="1.1" id="Layer_1" xmlns="http://www.w3.org/2000/svg" x="0" y="0" viewBox="0 0 512 512" xml:space="preserve"><style>.st0{fill:#fff}</style><path class="st0" d="M392.8 301.6c-8.4 0-15.2 6.8-15.2 15.2v136.8H43.2V119.2H180c8.4 0 15.2-6.8 15.2-15.2s-6.8-15.2-15.2-15.2H28c-8.4 0-15.2 6.8-15.2 15.2v364.8c0 8.4 6.8 15.2 15.2 15.2h364.8c8.4 0 15.2-6.8 15.2-15.2v-152c0-8.4-6.8-15.2-15.2-15.2z"/><path class="st0" d="M499.2 149.6c0 4.4-1.9 8.5-5.2 11.4L372.4 267.4c-4.5 4-10.9 4.9-16.3 2.4-5.4-2.5-8.9-7.9-8.9-13.8v-45.6h-20.5c-58 0-111.1 29.4-141.8 78.6l-22.4 35.9c-2.8 4.6-7.8 7.1-12.9 7.1-1.7 0-3.5-.3-5.2-.9-6.8-2.5-10.9-9.3-9.9-16.4l8-56.2c13.8-96.7 97.9-169.7 195.6-169.7h9V43.2c0-6 3.5-11.4 8.9-13.8 5.4-2.5 11.8-1.5 16.3 2.4L494 138.2c3.3 2.9 5.2 7 5.2 11.4z"/></svg>