<svg version="1.1" id="Layer_1" xmlns="http://www.w3.org/2000/svg" x="0" y="0" viewBox="0 0 512 512" xml:space="preserve"><style>.st0{fill:#fff}</style><path class="st0" d="M484.9 406.5h-21.4V142.1c0-13-10.6-23.6-23.6-23.6h-38.6c-13 0-23.6 10.6-23.6 23.6v264.4h-35.1V299.2c0-13-10.6-23.6-23.6-23.6h-38.6c-13 0-23.6 10.6-23.6 23.6v107.3h-35.1v-50.3c0-13-10.6-23.6-23.6-23.6h-38.6c-13 0-23.6 10.6-23.6 23.6v50.3h-21.4c-7.9 0-14.2 6.4-14.2 14.2s6.4 14.2 14.2 14.2h370.2c7.9 0 14.2-6.4 14.2-14.2s-6.2-14.2-14-14.2z"/><path class="st0" d="M170.3 279.2c25.9 0 51.8-9.9 71.5-29.6 19.1-19.1 29.6-44.5 29.6-71.5s-10.5-52.4-29.6-71.5c-39.4-39.4-103.6-39.4-143.1 0-19.1 19.1-29.6 44.5-29.6 71.5 0 18.2 4.8 35.6 13.7 50.9l-62.4 62.4c-10.1 10.1-10.1 26.4 0 36.5s26.4 10.1 36.5 0l62.4-62.4c15.8 9.1 33.4 13.7 51 13.7zm-36.4-137.5c20.1-20.1 52.7-20.1 72.8 0 9.7 9.7 15.1 22.6 15.1 36.4 0 13.7-5.4 26.7-15.1 36.4-10 10-23.2 15-36.4 15s-26.4-5-36.4-15c-9.7-9.7-15.1-22.6-15.1-36.4 0-13.8 5.4-26.7 15.1-36.4z"/><path class="st0" d="M186.6 194.3c4.3-4.3 6.7-10.1 6.7-16.2s-2.4-11.9-6.7-16.2c-9-9-23.6-9-32.5 0-4.3 4.3-6.7 10.1-6.7 16.2s2.4 11.9 6.7 16.2c8.9 9 23.5 9 32.5 0z"/></svg>