<svg version="1.1" id="Layer_1" xmlns="http://www.w3.org/2000/svg" x="0" y="0" viewBox="0 0 512 512" xml:space="preserve"><style>.st0{fill:#fff}</style><path class="st0" d="M35.7 188.2c2.7 9.1 6.4 18 11 26.2l-13.3 16.8c-4.4 5.5-3.9 13.3 1 18.3l23 23c5 5 12.8 5.4 18.3 1l16.7-13.2c8.6 5 17.7 8.8 27.3 11.5l2.5 21.5c.8 7 6.7 12.2 13.7 12.2h32.5c7 0 12.8-5.2 13.7-12.2l2.4-20.7c10.2-2.7 20-6.6 29.2-11.8l16.2 12.8c5.5 4.4 13.3 3.9 18.3-1l23-23c5-5 5.4-12.8 1-18.3l-12.6-15.9c5.2-9 9.3-18.7 12-28.7l19.4-2.2c7-.8 12.2-6.7 12.2-13.7v-32.5c0-7-5.2-12.8-12.2-13.7l-19.1-2.2c-2.6-10-6.5-19.5-11.5-28.4l11.8-14.9c4.4-5.5 3.9-13.3-1-18.3L248 38c-5-5-12.8-5.4-18.3-1l-14.4 11.4c-9.4-5.5-19.4-9.7-29.9-12.5l-2.2-18.7c-.8-7-6.7-12.2-13.7-12.2H137c-7 0-12.8 5.2-13.7 12.2l-2.2 18.7c-10.8 2.9-21.1 7.2-30.6 12.9l-15-11.9c-5.5-4.4-13.3-3.9-18.3 1l-23 23c-5 5-5.4 12.8-1 18.3L45.9 95c-5 9-8.8 18.7-11.3 28.7l-20 2.3c-7 .8-12.2 6.7-12.2 13.7v32.5c0 7 5.2 12.8 12.2 13.7l21.1 2.3zm117.7-87.8c29.6 0 53.7 24.1 53.7 53.7s-24.1 53.7-53.7 53.7-53.7-24.1-53.7-53.7 24.1-53.7 53.7-53.7z"/><path class="st0" d="M474.5 196.2l-17.1-14.5c-5.3-4.5-13.1-4.2-18.1.5l-9.5 8.9c-8-3.9-16.5-6.6-25.2-8.2l-2.7-13.1c-1.4-6.7-7.6-11.4-14.5-10.9l-22.4 1.9c-6.9.6-12.2 6.2-12.5 13.1l-.4 13.3c-8.6 3.1-16.7 7.3-24.1 12.7l-11.3-7.5c-5.8-3.8-13.4-2.7-17.9 2.6l-14.5 17.2c-4.5 5.3-4.2 13.1.5 18.1l9.9 10.6c-3.4 7.7-5.9 15.8-7.3 24.2l-14.1 2.9c-6.7 1.4-11.4 7.6-10.9 14.5l1.9 22.4c.6 6.9 6.2 12.2 13.1 12.5l15.3.5c2.8 7.3 6.4 14.2 10.8 20.7l-8.5 12.9c-3.8 5.8-2.7 13.4 2.6 17.9l17.1 14.5c5.3 4.5 13.1 4.2 18.1-.5l11.2-10.5c7.3 3.4 15.1 6 23 7.5l3.1 15.3c1.4 6.7 7.6 11.4 14.5 10.9l22.4-1.9c6.9-.6 12.2-6.2 12.5-13.1l.5-15c8.2-2.9 15.9-6.8 23-11.6l12.4 8.2c5.8 3.8 13.4 2.7 17.9-2.6l14.5-17.1c4.5-5.3 4.2-13.1-.5-18.1l-10-10.6c3.6-7.7 6.3-15.9 7.8-24.3l13.6-2.8c6.7-1.4 11.4-7.6 10.9-14.5l-1.9-22.4c-.6-6.9-6.2-12.2-13.1-12.5l-13.7-.4c-2.8-7.9-6.6-15.5-11.4-22.4l7.5-11.2c3.9-5.9 2.8-13.6-2.5-18.1zm-84.3 129.3c-24.2 2.1-45.5-15.9-47.5-40.1-2.1-24.2 15.9-45.5 40.1-47.5 24.2-2.1 45.5 15.9 47.5 40.1 2.1 24.2-15.9 45.5-40.1 47.5zM114 385.7c-6.9.7-12.1 6.5-12.2 13.4l-.2 13.8c-.1 6.9 5 12.8 11.9 13.7l10.1 1.3c1.7 6.1 4.1 12 7.2 17.6l-6.5 8.1c-4.4 5.4-4 13.1.8 18.1l9.6 9.8c4.8 5 12.6 5.5 18.1 1.3l8.1-6.3c5.7 3.4 11.8 6 18.1 7.9l1.1 10.4c.7 6.9 6.5 12.1 13.4 12.2l13.8.2c6.9.1 12.8-5 13.7-11.9l1.3-9.9c6.9-1.7 13.4-4.2 19.6-7.6l7.6 6.1c5.4 4.4 13.1 4 18.1-.8l9.8-9.6c5-4.8 5.5-12.6 1.3-18.1l-5.8-7.6c3.6-6 6.4-12.4 8.3-19l9-.9c6.9-.7 12.1-6.5 12.2-13.4l.2-13.8c.1-6.9-5-12.8-11.9-13.7l-8.8-1.1c-1.7-6.6-4.2-13.1-7.5-19l5.5-6.7c4.4-5.4 4-13.1-.8-18.1l-9.6-9.8c-4.8-5-12.6-5.5-18.1-1.3l-6.6 5.1c-6.2-3.8-12.8-6.6-19.8-8.6l-.9-8.5c-.7-6.9-6.5-12.1-13.4-12.2l-13.8-.2c-6.9-.1-12.8 5-13.7 11.9l-1.1 8.5c-7.2 1.8-14.1 4.7-20.5 8.4l-6.8-5.5c-5.4-4.4-13.1-4-18.1.8l-9.9 9.7c-5 4.8-5.5 12.6-1.3 18.1l5.8 7.5c-3.4 6-6 12.3-7.8 19l-9.5.7zm88.8-15.6c19.7.2 35.6 16.5 35.4 36.2-.2 19.7-16.5 35.6-36.2 35.4-19.7-.2-35.6-16.5-35.4-36.2.2-19.8 16.4-35.6 36.2-35.4z"/></svg>