<svg version="1.1" id="Layer_1" xmlns="http://www.w3.org/2000/svg" x="0" y="0" width="44" height="51" viewBox="0 0 44 51" xml:space="preserve"><style>.st0{fill:#d8d8d8}.st1{fill:none;stroke:#979797;stroke-linecap:square}</style><g id="Computer_on" transform="translate(11 54)"><path id="Rectangle" class="st0" d="M0-45h18v2H0z"/><path id="Rectangle-Copy" class="st0" d="M0-40h18v2H0z"/><path id="Rectangle-Copy-2" class="st0" d="M0-35h18v2H0z"/><path id="Line" class="st1" d="M9-24v19"/><path id="Line-Copy" class="st1" d="M22-7H-3"/><path id="Line-Copy_1_" class="st1" d="M-10.5-7H-7"/><path id="Line-Copy-2" class="st1" d="M25.5-7H29"/><circle id="Oval" class="st0" cx="9" cy="-7" r="4"/><path id="Rectangle_1_" d="M-7-53h32c1.7 0 3 1.3 3 3v22c0 1.7-1.3 3-3 3H-7c-1.7 0-3-1.3-3-3v-22c0-1.7 1.3-3 3-3z" fill="none" stroke="#d8d8d8" stroke-width="2"/><circle id="Oval-4" cx="28" cy="-43" r="5" fill="#ffa71a"/></g></svg>