<svg version="1.1" id="Layer_1" xmlns="http://www.w3.org/2000/svg" x="0" y="0" viewBox="0 0 44 51" xml:space="preserve"><style>.st0{fill:#d2dadb}.st1{fill:none;stroke:#698287;stroke-linecap:square}</style><g id="Page-1"><g id="_x36_4661_x5F_Computer_x5F_green" transform="translate(0 1)"><path id="Rectangle" class="st0" d="M11 8h18v2H11V8z"/><path id="Rectangle-Copy" class="st0" d="M11 13h18v2H11v-2z"/><path id="Rectangle-Copy-2" class="st0" d="M11 18h18v2H11v-2z"/><path id="Line" class="st1" d="M20 29v19"/><path id="Line-Copy" class="st1" d="M33 46H8"/><path id="Line-Copy_1_" class="st1" d="M.5 46H4"/><path id="Line-Copy-2" class="st1" d="M36.5 46H40"/><circle id="Oval" class="st0" cx="20" cy="46" r="4"/><path id="Rectangle_1_" d="M4 0h32c1.7 0 3 1.3 3 3v22c0 1.7-1.3 3-3 3H4c-1.7 0-3-1.3-3-3V3c0-1.7 1.3-3 3-3z" fill="none" stroke="#d2dadb" stroke-width="2"/><circle id="Oval-4" cx="39" cy="10" r="5" fill="#82ed24"/><path id="Rectangle-2" d="M38 12h2v1h-2v-1z" fill-rule="evenodd" clip-rule="evenodd" fill="#fff"/><path id="Line-2" d="M39 8v2" fill="none" stroke="#fff" stroke-width="2" stroke-linecap="square"/></g></g></svg>