<svg version="1.0" xmlns="http://www.w3.org/2000/svg" width="933.333" height="933.333" viewBox="0 0 700 700"><path d="M332.8 31.5c-.2.2-4.3.6-9.3.9-4.9.3-10.1.8-11.5 1-1.4.3-7.4 1.2-13.3 2.1-6 .9-16.2 2.9-22.7 4.5-71.5 17.5-132.8 57.5-177.6 116-21.6 28.1-38 59-49.3 92.9-3.2 9.5-9.5 32.9-10.4 38.6-.5 2.9-1 6.3-2.2 13-.3 1.6-.8 5.5-1.1 8.5-.3 3-.7 6.1-.9 6.8-.7 2.1-1.9 24-1.8 34.7 0 16.3 2.1 42.9 3.8 48.5.2.8.6 3.3.9 5.5 1.4 11.1 6.1 29.9 11.8 47 32 95.7 107.1 170.6 202.3 201.7 9.6 3.1 29.5 8.4 34.8 9.3 1.8.3 4.6.8 6.2 1.2 1.7.3 3.7.7 4.5.8.8.1 3.5.5 6 .9s5.6.9 7 1.1c18.7 2.9 62 2.6 82.5-.5 3.3-.5 8-1.2 10.5-1.5 2.5-.3 5.2-.8 6-1 .8-.2 3.1-.7 5-1 1.9-.3 5.3-1.1 7.5-1.6 2.2-.6 4.7-1.3 5.5-1.5 6.5-1.5 15.1-4.1 24-7.1 101-34.2 178.4-117.1 205.5-219.8 3.3-12.5 5-20.1 6.1-27.5.3-1.9.9-5.8 1.4-8.5.8-4.8 1.1-7.3 2.6-22.5 1.8-18.4.2-56.1-3.2-73.3-.2-1.2-.6-3.9-.9-6.2-2.2-14.9-10.3-43.6-17.7-62.5-5.1-12.9-18.6-39.7-25.3-50.3-40.4-63.4-97.5-109.2-166.3-133-11.7-4.1-36.9-10.8-45.2-12.1-1.9-.3-4.8-.8-6.5-1.1-7.1-1.2-9.3-1.5-14.5-2-3-.4-7.1-.8-9-1.1-3.8-.6-44.7-1.4-45.2-.9zm5.7 88.2v64.8l-66.2.3c-39.8.1-66.3-.2-66.3-.7 0-1.4 6.3-15.7 11.3-25.8 13.4-26.5 28.1-47.1 46.7-65.3 19.2-18.7 38.2-29.9 61.1-35.9 3.6-.9 8.1-1.8 10-1.9l3.4-.2v64.7zm37.8-62.2c41 10.7 80 47.7 106.1 100.8 7.2 14.7 11.6 24.5 11.6 25.8 0 .5-28.2.8-66.2.7l-66.3-.3v-64.9l-.1-64.8 4.6.6c2.6.3 7.2 1.3 10.3 2.1zM246.7 78.2c-24.3 24-44.5 55.4-60.7 94.4l-4.9 11.9-37.6.3c-37.5.2-37.6.2-36.5-1.8 1.6-2.9 15-20.5 20.6-27 8.8-10.2 28-28.6 38.5-37 26-20.8 61.3-40.2 88.7-48.9.2-.1-3.5 3.6-8.1 8.1zm214.3-2c36 14.6 68.4 36.2 97.5 65.3 11.8 11.9 15.8 16.6 26.7 31l9 12-37.3.3c-20.5.1-37.6-.1-38-.5-.4-.5-2.8-5.9-5.4-12.2-15-36.9-36.7-70.6-60.9-94.4l-8.1-7.9 4.5 1.7c2.5 1 7.9 3.1 12 4.7zM172.6 208.3c.3.3-.4 4-1.7 8.4-1.8 6.6-5.3 20.2-6.4 25.3-1.4 6.4-3.5 17.2-3.9 20.5-.4 2.2-1.1 6.5-1.6 9.5-.9 5.1-1.3 7.9-2.5 17-1.4 10.1-2.8 30.9-3.5 48.5 0 1.5-97 1.4-97.1 0-.2-1.9 1-20 1.5-23.5.3-1.4.9-5.7 1.5-9.5 1.6-10.3 2-12.3 3.7-20 2.8-12.3 8.5-30.6 13.1-42.5 4.6-11.7 14.9-33.1 16.3-34 1.1-.7 79.9-.4 80.6.3zm163.4-.4l2.5.1v130.5h-162l.1-10.5c.1-9.9 1-25.3 1.8-29.6.2-1 .7-5 1.1-8.7.3-3.7.8-7.6.9-8.5.2-.9.7-4 1.1-6.7.5-2.8.9-5.2 1-5.5.1-.3.5-2.8.9-5.5 1.2-7.1 6.3-29.8 8.5-37.5 1.1-3.6 2.6-9.1 3.5-12.2l1.6-5.7 5.3-.3c4.3-.2 125.6-.1 133.7.1zm166.5.2c1.4 1.5 10.8 38.6 14 55.4 1.1 6.2 3.3 20.8 4 27 .3 2.7.8 6.6 1 8.5.8 6.3 1.5 15.3 2 27.5l.5 12H361.5l-.1-65c0-62.8 0-65 1.8-65.5 2.4-.6 138.7-.5 139.3.1zm105.1.3c1.9.7 12.3 22.7 18.2 38.6 6.2 16.6 8.4 24.5 12.1 42 2.1 9.7 2.5 12.4 3.6 19.5.3 2.3.7 5.1 1 6.4.2 1.3.7 7.2 1 13.2l.7 10.9-48.6-.2c-43-.2-48.6-.4-48.7-1.8 0-.8-.2-5.1-.4-9.5-.5-10.8-2.2-31.6-3-37-.2-1.7-.7-5.3-1-8-2.1-16.8-7.3-42.7-12.1-60.4-1.9-6.7-3.4-12.7-3.4-13.1 0-.5 1.9-1 4.3-1.2 6.8-.5 74.8 0 76.3.6zM153.1 364.5c.3 11.4 1.9 35.5 2.4 37.5.2.8.6 4.2 1 7.5.8 7.3 1.4 11.9 2.1 16.5.3 1.9.8 4.6 1 6 .7 3.9 4.3 23.2 4.9 25.7 1.9 8.6 3.7 15.7 6.2 24.7 1.6 5.6 2.1 9.1 1.5 9.5-1.1.6-80 .7-80.6 0-.6-.6-8-15.6-10.4-20.9-11.3-25.3-18.8-51.4-22.8-78.9-.4-2.5-.8-5.5-1-6.6-.2-1.1-.7-6.3-1-11.5-.3-5.2-.8-9.7-1-9.9-.2-.2 0-.9.6-1.5.6-.8 14.5-1.2 48.9-1.2H153l.1 3.1zm184.9-2.6c.3 0 .5 29.3.5 65 .1 57.5-.1 65-1.5 65.3-.8.2-32.5.4-70.5.3h-69l-1.8-5.5c-2.5-7.4-9.4-34.4-10.2-40-.4-2.4-.8-4.7-1-5-.2-.3-.6-2.6-1-5-.3-2.5-.8-5.2-1.1-6.1-.2-.9-.7-3.4-.9-5.5-.4-3.6-1.4-9.8-2-13.4-.1-.8-.6-4.9-1-9s-.9-8.3-1-9.2c-.2-.9-.7-8.6-1-17l-.6-15.3 80.8.1c44.4.1 81 .2 81.3.3zm185.4 8.1c0 9-1.3 32.1-1.9 33-.1.3-.6 3.6-1 7.5-.3 3.8-1.5 11.9-2.6 18-2 11.4-2.1 12.4-4 21.5-1.5 7.3-7.4 30.1-9.6 37l-1.8 5.5h-141l-.1-65.2c0-57.3.2-65.3 1.5-65.5.8-.2 37.3-.3 81-.3h79.6l-.1 8.5zm120.1-1.5c-.2 32.8-12.5 78.9-30.7 115l-4.6 9h-40.6c-22.3 0-40.6-.3-40.6-.7 0-.4 2-8.6 4.5-18.2 4.2-16.5 8.6-38.1 10-49.1.4-2.8.8-5.7 1-6.5.2-.8.7-4.7 1-8.5.4-3.9.8-8 1-9.3.5-3 1.7-19.7 2-28.2.2-3.6.3-7.4.4-8.5.1-2 .7-2 48.4-2h48.2v7zm-459.6 154c1.5 3.8 3.6 8.8 4.6 11 17 37.8 33.5 63 56.3 86.2 5 5.1 8.7 9.3 8.2 9.3s-5.6-1.8-11.2-4.1c-13.3-5.3-32.8-15.1-44.8-22.4-8.8-5.5-26.9-17.9-28-19.4-.3-.4-2.5-2.2-5-4.1-16.9-13-45.6-44.1-56.4-61.1l-1.8-2.9 37.7.2 37.8.3 2.6 7zm154.2-6.5c.1.3.2 29.4.3 64.7l.1 64.3h-3c-3.4 0-19.3-4.2-25.1-6.6-30-12.4-57.7-37.7-80-73.2-9.2-14.6-25.1-47.2-24-49.1.5-.8 131.5-.9 131.7-.1zm155.9-.4c0 1.5-9.7 22.7-14.3 31.4-18.9 35.6-42.2 62.8-68.1 79.5-9.3 6-18.5 10.5-27.1 13.4-6.8 2.2-18.8 5.1-21.4 5.1-1.6 0-1.7-4.1-1.7-65v-65h66.3c36.5 0 66.3.3 66.3.6zm99.4.6c-2 3.3-12.4 17.1-18.4 24.3-8.2 9.8-23.3 25.1-32 32.5-3.6 3-6.7 5.7-7 6-.3.3-3 2.4-6 4.8-3 2.3-6 4.5-6.5 5-2.7 2.2-19.8 13.4-26.2 17-14.6 8.5-46.6 23.2-50.5 23.2-.4 0 3.1-3.8 7.7-8.5 9.7-9.7 21.8-24.6 28.9-35.5 2.7-4.1 5.7-8.7 6.7-10.2 1.1-1.5 1.9-2.9 1.9-3.2 0-.3 1.4-2.9 3.1-5.8 6.4-10.9 14-26.8 22.3-47.1l1.5-3.7h37.6c29.8 0 37.5.3 36.9 1.2z"/></svg>