<svg id="Layer_1" xmlns="http://www.w3.org/2000/svg" width="28" height="21" viewBox="0 0 28 21"><style>.st0{fill:#d7d7d7}</style><path id="Fill-1" class="st0" d="M20 15.7V1.1c0-.6-.5-.9-1.1-.8L5.7 4.9h-5c-.4 0-.7.3-.7.7v5.6c0 .4.3.7.7.7h1.2l3.3 7.8c.1.3.4.5.7.5h2c.2 0 .4-.2.3-.4l-1-3H8c.2 0 .4-.2.4-.4v-.9c0-.2-.2-.4-.4-.4H6.7l-1-3.1 13.2 4.5c.6.1 1.1-.3 1.1-.8"/><path id="Fill-4" class="st0" d="M26.5 9.7h-2.6c-.3 0-.6-.3-.6-.6s.3-.6.6-.6h2.6c.3 0 .6.3.6.6s-.3.6-.6.6"/><path id="Fill-6" class="st0" d="M23.9 4.8c-.2 0-.3-.1-.5-.2-.2-.3-.2-.6.1-.8l2.6-2.1c.3-.2.6-.2.8.1.2.3.2.6-.1.8l-2.6 2.1c0 .1-.1.1-.3.1"/><path id="Fill-8" class="st0" d="M26.5 16.5c-.1 0-.3 0-.4-.1l-2.6-2.1c-.3-.2-.3-.6-.1-.8.2-.3.6-.3.8-.1l2.6 2.1c.3.2.3.6.1.8-.1.1-.2.2-.4.2"/></svg>