<svg version="1.1" id="Layer_1" xmlns="http://www.w3.org/2000/svg" x="0" y="0" viewBox="0 0 1792 1792" xml:space="preserve"><path d="M1690 294c-25.3-25.3-55.3-38-90-38h-128v-96c0-44-15.7-81.7-47-113s-69-47-113-47h-64c-44 0-81.7 15.7-113 47s-47 69-47 113v96H704v-96c0-44-15.7-81.7-47-113S588 0 544 0h-64c-44 0-81.7 15.7-113 47s-47 69-47 113v96H192c-34.7 0-64.7 12.7-90 38s-38 55.3-38 90v1280c0 34.7 12.7 64.7 38 90s55.3 38 90 38h1408c34.7 0 64.7-12.7 90-38s38-55.3 38-90V384c0-34.7-12.7-64.7-38-90zm-474-134c0-8.7 3.2-16.2 9.5-22.5s13.8-9.5 22.5-9.5h64c8.7 0 16.2 3.2 22.5 9.5s9.5 13.8 9.5 22.5v288c0 8.7-3.2 16.2-9.5 22.5s-13.8 9.5-22.5 9.5h-64c-8.7 0-16.2-3.2-22.5-9.5s-9.5-13.8-9.5-22.5V160zm-768 0c0-8.7 3.2-16.2 9.5-22.5s13.8-9.5 22.5-9.5h64c8.7 0 16.2 3.2 22.5 9.5s9.5 13.8 9.5 22.5v288c0 8.7-3.2 16.2-9.5 22.5S552.7 480 544 480h-64c-8.7 0-16.2-3.2-22.5-9.5S448 456.7 448 448V160zm1152 1504H192V640h1408v1024z" fill="#698287"/></svg>