<svg version="1.1" id="Layer_1" xmlns="http://www.w3.org/2000/svg" x="0" y="0" width="25" height="25" viewBox="0 0 25 25" xml:space="preserve"><path d="M19.5 9.7c-.3-.4-.7-.5-1.3-.5h-.9V7.4c0-1.3-.4-2.2-1.4-3.3-.9-1.1-2-1.4-3.3-1.4s-2.3.3-3.3 1.4c-1.1.8-1.4 2-1.4 3.3v1.8h-1c-.4 0-.9.1-1.3.5-.5.5-.7.9-.7 1.4v9.5c0 .5.3.7.5 1.2.3.4.7.5 1.3.5h11.4c.4 0 .9-.1 1.3-.5.4-.3.5-.7.5-1.3V11c.3-.3.1-.7-.4-1.3zm-5.6 7.7c-.3.4-.7.5-1.3.5-.4 0-.9-.1-1.3-.5s-.5-.7-.5-1.3c0-.5.1-1.1.5-1.4.3-.3.9-.5 1.3-.5.5 0 1.1.3 1.3.5.4.4.5 1.1.5 1.4 0 .3-.1.9-.5 1.3zm1.7-8.2H9.7V7.4c0-.9.3-1.4.8-2 .5-.5 1.3-.9 2.1-.9s1.6.3 2.1.7c.5.5.9 1.3.9 2.1v1.9z" fill="#c4bebb"/></svg>