<svg xmlns="http://www.w3.org/2000/svg" xmlns:xlink="http://www.w3.org/1999/xlink"><symbol viewBox="0 0 15 15" id="arrow" xmlns="http://www.w3.org/2000/svg"><path d="M7.1 12.2l-7-6.9C0 5.1 0 5 0 4.9s0-.3.1-.4l1.5-1.6c0-.1.1-.1.4-.1.1 0 .3 0 .4.1l5 5 4.9-5c.1-.1.3-.1.4-.1s.3 0 .4.1l1.6 1.6c.3.1.3.2.3.4s0 .3-.1.4L8 12.2c-.3.1-.3.1-.6.1s-.3.1-.3-.1z" fill="#171515"/></symbol><symbol viewBox="0 0 24 24" id="arrow-double" xmlns="http://www.w3.org/2000/svg"><path d="M12.4 6.6c-.2-.2-.2-.4-.2-.6 0-.6.5-1 1-1 .3 0 .6.1.8.4l4.8 6c.3.4.3.9 0 1.3l-5 6c-.4.4-1 .5-1.4.1-.4-.4-.5-1-.1-1.4l4.5-5.4-4.4-5.4z"/><path d="M5.4 6.6c-.2-.2-.2-.4-.2-.6 0-.6.5-1 1-1 .3 0 .6.1.8.4l4.8 6c.3.4.3.9 0 1.3l-5 6c-.4.4-1 .5-1.4.1-.4-.4-.5-1-.1-1.4L9.7 12 5.4 6.6z"/></symbol><symbol viewBox="0 0 16 11" id="arrow-down" xmlns="http://www.w3.org/2000/svg"><path d="M14 3.7l-6 6-6-6 1.6-1.5L8 6.6l4.4-4.4z"/></symbol><symbol viewBox="0 0 24 24" id="arrow-light" xmlns="http://www.w3.org/2000/svg"><path d="M15.8 12.6l-5 6c-.2.3-.5.4-.8.4-.2 0-.5-.1-.6-.2-.4-.4-.5-1-.1-1.4l4.5-5.4-4.4-5.4c-.4-.4-.3-1 .1-1.4.2-.1.5-.2.7-.2.3 0 .5.1.8.3v.1l4.8 6c.3.3.3.9 0 1.2z"/></symbol><symbol viewBox="0 0 11 6" id="arrow-light-down" xmlns="http://www.w3.org/2000/svg"><path d="M11 .8c0 .1 0 .2-.1.2L5.8 5.9c-.1.1-.2.1-.3.1s-.2 0-.3-.1L.1 1S0 .9 0 .8 0 .6.1.6L.6.1C.7 0 .8 0 .9 0c.1 0 .2 0 .3.1l4.3 4.1L9.8.1c.1-.1.2-.1.3-.1.1 0 .2 0 .3.1l.5.5c0 .1.1.1.1.2z" fill-rule="evenodd" clip-rule="evenodd"/></symbol><symbol viewBox="0 0 18 18" id="arrow-line" xmlns="http://www.w3.org/2000/svg"><path d="M16.5 9.2c0 .1 0 .1-.1.2 0 0 0 .1-.1.1 0 0 0 .1-.1.1l-.1.1-5.5 5.5c-.4.4-1 .4-1.4 0-.4-.4-.4-1 0-1.4L13 10H2.5c-.5 0-1-.5-1-1s.5-1 1-1h10.6L9.3 4.2c-.4-.4-.4-1 0-1.4.4-.4 1-.4 1.4 0l5.5 5.5.1.1.1.1.1.1c0 .1 0 .1.1.2-.1.1-.1.3-.1.4z"/><path d="M16.3 8.4l-.1-.1.1.1c-.1-.1 0-.1 0 0z"/></symbol><symbol viewBox="0 0 18 18" id="arrow-line-home" xmlns="http://www.w3.org/2000/svg"><path d="M3 8.8c0-.1 0-.1.1-.2 0 0 0-.1.1-.1 0 0 0-.1.1-.1l.1-.1 5.5-5.5c.4-.4 1-.4 1.4 0s.4 1 0 1.4L6.5 8H17c.5 0 1 .5 1 1s-.5 1-1 1H6.4l3.8 3.8c.4.4.4 1 0 1.4-.4.4-1 .4-1.4 0L3.3 9.7l-.1-.1-.1-.1-.1-.1c0-.1 0-.1-.1-.2.1-.1.1-.3.1-.4z"/><path d="M16.3 8.4l-.1-.1.1.1c-.1-.1 0-.1 0 0zM.9 16c-.5 0-.9-.4-.9-.9V2.9c0-.5.4-.9.9-.9s.9.4.9.9v12.2c0 .5-.4.9-.9.9z"/></symbol><symbol viewBox="0 0 18 18" id="arrow-line-rd" xmlns="http://www.w3.org/2000/svg"><path d="M16.3 8.4l-.1-.1.1.1c-.1-.1 0-.1 0 0z"/><path d="M16.4 8.4H.2v1.3h16.1c.3 0 .4.3.2.5l-6.3 6.3.9.9 6.6-6.6V7.2L11.1.6l-.9.9 6.3 6.3c.3.2.2.6-.1.6z"/></symbol><symbol viewBox="0 0 257 300" id="bars" xmlns="http://www.w3.org/2000/svg"><path d="M257.143 225v21.429c0 5.859-4.855 10.714-10.714 10.714H10.715c-5.859 0-10.714-4.855-10.714-10.714V225c0-5.859 4.855-10.714 10.714-10.714h235.714c5.859 0 10.714 4.855 10.714 10.714zm0-85.714v21.429c0 5.859-4.855 10.714-10.714 10.714H10.715c-5.859 0-10.714-4.855-10.714-10.714v-21.429c0-5.859 4.855-10.714 10.714-10.714h235.714c5.859 0 10.714 4.855 10.714 10.714zm0-85.715V75c0 5.859-4.855 10.714-10.714 10.714H10.715C4.856 85.714.001 80.859.001 75V53.571c0-5.859 4.855-10.714 10.714-10.714h235.714c5.859 0 10.714 4.855 10.714 10.714z"/></symbol><symbol viewBox="0 0 12 11.5" id="calendar" xmlns="http://www.w3.org/2000/svg"><path d="M10.8 1h-.6V0H9v1H3V0H1.8v1h-.6C.5 1 0 1.5 0 2.1v8.3c0 .6.5 1 1.2 1h9.6c.7 0 1.2-.5 1.2-1V2.1c0-.6-.5-1.1-1.2-1.1zm.2 9.4H1V4h10v6.4z"/></symbol><symbol viewBox="0 0 67 67" id="close" xmlns="http://www.w3.org/2000/svg"><path d="M62.7 58.1c0 1.2-.5 2.3-1.4 3.1-.8.8-2 1.3-3.3 1.3-1.3 0-2.4-.5-3.3-1.3L33.5 40.1 12.2 61.3c-.9.9-2 1.3-3.3 1.3-1.3 0-2.4-.5-3.3-1.3-.9-.9-1.4-2.1-1.4-3.3 0-1.2.5-2.3 1.4-3.1L27 33.6 5.7 12.2c-1.8-1.8-1.8-4.7 0-6.5 1.8-1.8 4.7-1.8 6.6 0L33.5 27 54.8 5.7c.9-.9 2.1-1.4 3.3-1.4 1.2 0 2.3.5 3.1 1.4 1.8 1.8 1.8 4.7 0 6.5L40 33.5l21.3 21.3c.9.9 1.4 2.1 1.4 3.3z"/></symbol><symbol viewBox="0 0 18 18" id="compare" xmlns="http://www.w3.org/2000/svg"><path d="M11 9.2v3.4H7V9.2l2-1.7zm-4 4.2h4.1v1.9H7zm9-6.3v5.5h-4.1V7.1l2-1.7zm-4.1 6.3H16v1.9h-4.1zM6.1 4.3v8.3H2V4.3l2.1-1.6zM2 13.4h4.1v1.9H2z"/></symbol><symbol viewBox="0 0 18 18" id="download" xmlns="http://www.w3.org/2000/svg"><path d="M3.3 14.3h11.5v1.6H3.3zM14.7 7L9 12.7 3.3 7h3.2V2h5v5z"/></symbol><symbol viewBox="0 0 16 16" id="earth" xmlns="http://www.w3.org/2000/svg"><path d="M8 0C3.6 0 0 3.6 0 8s3.6 8 8 8 8-3.6 8-8-3.6-8-8-8zM1 8c0-.4 0-.8.1-1.3.1 0 .2.1.3.1 0 0 .1.1.1.2 0 .3.3.5.5.5.8.1 1.1.8 1.8 1 .2.1.1.3 0 .5-.6.8-.1 1.4.4 1.9.5.4.5.8.6 1.4 0 .7.1 1.5.4 2.2C2.7 13.3 1 10.9 1 8zm7 7c-.7 0-1.5-.1-2.1-.3-.1-.2-.1-.4 0-.6.4-.8.8-1.5 1.3-2.2.2-.2.4-.4.4-.7 0-.2.1-.5.2-.7.3-.5.2-.8-.2-.9-.8-.2-1.2-.9-1.8-1.2-.6-.3-1.2-.5-1.7-.2-.2.1-.5.2-.5-.1 0-.4-.5-.7-.4-1.1-.1 0-.2 0-.3.1-.1.1-.2.2-.4.1-.2-.2-.1-.4-.1-.6.1-.2.2-.3.4-.4.4-.1.8-.1 1 .4.3-.9.9-1.4 1.5-1.8 0 0 .8-.7.9-.7.1 0 .2.2.4.3.2 0 .3 0 .3-.2.1-.5-.2-1.1-.6-1.2 0-.1.1-.1.1-.1.3-.1.7-.3.6-.6 0-.4-.4-.6-.8-.6-.2 0-.4 0-.6.1-.4.2-.9.4-1.5.4C5.2 1.4 6.6 1 8 1h.8c-.6.1-1.2.3-1.6.5.6.1.7.4.5.9-.1.2 0 .4.2.5.2.1.4.1.5-.1.2-.3.6-.4.9-.5.4-.1.7-.3 1-.7 0-.1.1-.1.2-.2.6.2 1.2.6 1.8 1-.1 0-.1.1-.2.1-.2.2-.5.3-.2.7.1.2 0 .3-.1.4-.2.1-.3 0-.4-.1-.1-.1-.1-.3-.4-.3-.1.2-.4.3-.4.6.5 0 .4.4.5.7-.6.1-.8.4-.5.9.1.2-.1.3-.2.4-.4.6-.8 1-.8 1.7s.5 1.4 1.3 1.3c.9-.1.9-.1 1.2.7 0 .1.1.2.1.3.1.2.2.4.1.6-.3.8.1 1.4.4 2 .1.2.2.3.3.4-1.3 1.4-3 2.2-5 2.2zm4.3-9.5c.3-.1.5-.2.9-.2s.7.3 1.1.3c-.3.4-1.6.4-2-.1z"/></symbol><symbol viewBox="0 0 512 512" id="email" xmlns="http://www.w3.org/2000/svg"><path d="M478.5 63.8h-445C21.1 63.8 11 74.9 11 88.7v334.6c0 13.7 10.1 24.9 22.5 24.9h445c12.4 0 22.5-11.2 22.5-24.9V88.7c0-13.8-10.1-24.9-22.5-24.9zM46 102.5h420v33.8L256 300 46 136.3v-33.8zm420 307H46V183.8l199.9 155.8c3 2.3 6.5 3.5 10.1 3.5s7-1.2 10.1-3.5L466 183.8v225.7z"/></symbol><symbol viewBox="0 0 18 18" id="email-branded" xmlns="http://www.w3.org/2000/svg"><path d="M10.4 10.4l3.9-4-.7-.7-4.1 4.2h-1L4.3 5.6l-.7.7 4 4.1h2.8z"/><path d="M3 8.5V5.4c0-.3.2-.5.5-.5h11c.3 0 .5.2.5.5v3.1h1v-3l-1.6-1.6H3.6L2 5.5v3h1zm12 1v3.1c0 .3-.2.5-.5.5h-11c-.3 0-.5-.2-.5-.5V9.5H2v3l1.6 1.6h10.8l1.6-1.6v-3h-1z"/></symbol><symbol viewBox="0 0 120 120" id="facebook" xmlns="http://www.w3.org/2000/svg"><path d="M69.1 30.3V45h20l-2.7 21.3H69.1V120H47V66.3H29V45h18V28.2C47 9.9 58.2 0 74.5 0c7.8 0 14.5.6 16.4.8v19.1H79.6c-8.8 0-10.5 4.2-10.5 10.4z"/></symbol><symbol class="arsvg-inline--fa arfa-facebook-f arfa-w-9" viewBox="0 0 264 512" id="facebook-f-brands" xmlns="http://www.w3.org/2000/svg"><path fill="currentColor" d="M76.7 512V283H0v-91h76.7v-71.7C76.7 42.4 124.3 0 193.8 0c33.3 0 61.9 2.5 70.2 3.6V85h-48.2c-37.8 0-45.1 18-45.1 44.3V192H256l-11.7 91h-73.6v229"/></symbol><symbol viewBox="0 0 29 18" id="filter" xmlns="http://www.w3.org/2000/svg"><path d="M13.1 3.6C12.7 1.8 11 .5 9.1.5s-3.5 1.3-4 3.1H0v2h5.1c.4 1.8 2.1 3.1 4 3.1s3.5-1.3 4-3.1H29v-2H13.1zm-4 3.1C7.9 6.7 7 5.7 7 4.6s.9-2.1 2.1-2.1 2.1.9 2.1 2.1-.9 2.1-2.1 2.1zm10.8 2.6c-1.9 0-3.5 1.3-4 3.1H0v2h15.9c.4 1.8 2.1 3.1 4 3.1s3.5-1.3 4-3.1H29v-2h-5.1c-.5-1.8-2.1-3.1-4-3.1zm0 6.2c-1.2 0-2.1-.9-2.1-2.1s.9-2.1 2.1-2.1 2.1.9 2.1 2.1-.9 2.1-2.1 2.1z"/></symbol><symbol viewBox="0 0 20 20" id="icon-check" xmlns="http://www.w3.org/2000/svg"><path d="M19.2 11.7c-.3-.5-.2-1.1.2-1.5l.3-.4c.5-.6.4-1.5-.2-2l-.4-.3c-.5-.3-.7-.9-.5-1.5l.2-.5c.2-.7-.3-1.5-1.1-1.6l-.5-.1c-.5-.1-1-.5-1.1-1l-.1-.5c-.1-.8-.9-1.3-1.7-1l-.5.2c-.6.2-1.1 0-1.5-.5L12 .6c-.5-.6-1.4-.8-2-.2l-.4.4c-.4.4-1 .5-1.5.2L7.6.8C6.9.4 6 .7 5.7 1.5l-.2.5c-.2.5-.7.9-1.3.8l-.4-.1c-.8 0-1.5.6-1.4 1.4v.5c0 .5-.3 1.1-.8 1.3l-.5.2c-.1 0-.1 0-.2.1C.3 6.6.1 7.3.4 8l.3.4c.3.5.2 1.1-.2 1.5l-.3.4-.1.1c-.4.6-.3 1.4.3 1.8l.4.3c.5.3.7.9.5 1.5l-.2.5c-.2.8.3 1.5 1.1 1.7l.5.1c.5.1 1 .5 1.1 1l.1.5c.1.8.9 1.3 1.7 1l.5-.2c.6-.2 1.1 0 1.5.5l.3.4c.5.6 1.4.8 2 .2l.4-.4c.4-.4 1-.5 1.5-.2l.5.2c.7.4 1.6.1 1.8-.7l.2-.5c.2-.5.7-.9 1.3-.8h.5c.8 0 1.5-.6 1.4-1.4v-.5c0-.5.3-1.1.8-1.3l.5-.2c.1 0 .1 0 .2-.1.6-.4.8-1.1.5-1.8l-.3-.3zM14.4 8l-5.8 5.9-2.8-3.2c-.3-.3-.2-.8.1-1.1.3-.3.8-.2 1.1.1l1.7 2 4.6-4.8c.3-.3.8-.3 1.1 0 .3.4.3.9 0 1.1z" fill-rule="evenodd" clip-rule="evenodd"/></symbol><symbol viewBox="0 0 42 30" id="icon-check-large" xmlns="http://www.w3.org/2000/svg"><path d="M41.9 1.5L13.3 29.1l-.8.8-.7-.7L.1 17.5l1.4-1.4 11 11 28-27zM13.3 29.1l-.8.8zM12.5 29.9l-.7-.7z"/></symbol><symbol viewBox="0 0 17 13" id="icon-check-sm" xmlns="http://www.w3.org/2000/svg"><path d="M15.8 2.7l-8.4 9.4-.1.1c-.2.2-.5.3-.8.3-.2 0-.5-.1-.7-.2L1.3 7.8c-.4-.4-.4-1 0-1.4.4-.4 1-.4 1.4 0L6.5 10l7.8-8.7c.4-.4 1-.4 1.4-.1.4.4.4 1.1.1 1.5z"/></symbol><symbol viewBox="0 0 17 13" id="icon-check-small" xmlns="http://www.w3.org/2000/svg"><g stroke="#4D3C32" stroke-width="2" fill="none" fill-rule="evenodd" stroke-linecap="square"><path d="M2 7l4.5 4.5M6.5 11.5L15 2"/></g></symbol><symbol viewBox="0 0 30.3 29.8" id="icon-close-large" xmlns="http://www.w3.org/2000/svg"><path d="M16.4 15.1l13.4 13.4-1.3 1.3-13.4-13.4L1.7 29.8.4 28.5l13.5-13.4L0 1.3 1.3 0l13.8 13.9L29 0l1.3 1.3z"/></symbol><symbol viewBox="0 0 17 13" id="icon-close-sm" xmlns="http://www.w3.org/2000/svg"><g transform="translate(2 2)"><path d="M7.9 4.5l3.9 3.8-1.5 1.5-3.8-3.9-3.8 3.9-1.5-1.5 3.9-3.8L1.2.7 2.7-.8l3.8 3.9 3.8-3.9L11.8.7z"/></g></symbol><symbol viewBox="0 0 24 24" id="icon-time" xmlns="http://www.w3.org/2000/svg"><path d="M12 2C6.5 2 2 6.5 2 12s4.5 10 10 10 10-4.5 10-10S17.5 2 12 2zm0 18c-4.4 0-8-3.6-8-8s3.6-8 8-8 8 3.6 8 8-3.6 8-8 8z"/><path d="M17 12c0 .5-.5 1-1 1h-4c-.5 0-1-.5-1-1V8c0-.5.5-1 1-1s1 .5 1 1v3h3c.5 0 1 .5 1 1z"/></symbol><symbol viewBox="0 0 120 120" id="linkedin" xmlns="http://www.w3.org/2000/svg"><path d="M112.5 74v38.5H90.8V78.4c0-8.1-.2-18.6-11.3-18.6-11.3 0-13 8.8-13 18v34.7H44.6V42.4h20.9V52h.3c2.9-5.5 10-11.3 20.6-11.3 22.1-.1 26.1 14.4 26.1 33.3zM32.7 20.1c0 7-5.7 12.7-12.6 12.7-7 0-12.6-5.8-12.6-12.7 0-7 5.7-12.6 12.6-12.6 7 0 12.6 5.6 12.6 12.6zM9.2 42.4H31v70.1H9.2z"/></symbol><symbol viewBox="0 0 18 18" id="lock" xmlns="http://www.w3.org/2000/svg"><path d="M13.5 5.8V3.1l-2-2h-5l-2 2v2.6H1.8v11h14.4v-11h-2.7zM9 12.6c-1 0-1.9-.8-1.9-1.9 0-1 .9-1.9 1.9-1.9s1.9.8 1.9 1.9c0 1.1-.9 1.9-1.9 1.9zm3.3-6.8H5.7V3.6L7 2.3h4l1.3 1.3v2.2z"/></symbol><symbol viewBox="0 0 18 18" id="lock-outline" xmlns="http://www.w3.org/2000/svg"><path d="M13.4 5.8V3.2l-2-2H6.5l-2 2v2.6H1.8v11h14.4v-11h-2.8zM5.6 3.6L7 2.2h4l1.4 1.4v2.2H5.6V3.6zm9.6 12.2H2.8v-9h12.4v9z"/><path d="M10.7 10.7c0 .9-.8 1.7-1.7 1.7s-1.7-.8-1.7-1.7C7.3 9.8 8.1 9 9 9s1.7.8 1.7 1.7z"/></symbol><symbol viewBox="0 0 10 14.5" id="pin" xmlns="http://www.w3.org/2000/svg"><path d="M9.8 3.6c0-.2-.2-.4-.2-.6C8.7.8 6.6 0 5 0 2.7 0 .3 1.5 0 4.5v1c.2 1.4 4 7.5 5 9 .6-1 5-7.7 5-9.4v-.6c0-.2-.2-.8-.2-.9zM5 6.7c-1 0-1.9-.8-1.9-1.8C3.1 3.8 3.9 3 5 3s1.9.8 1.9 1.9C6.8 5.9 6 6.7 5 6.7z"/></symbol><symbol viewBox="0 0 25 25" id="play" xmlns="http://www.w3.org/2000/svg"><path d="M12.5 0C5.6 0 0 5.6 0 12.5S5.6 25 12.5 25 25 19.4 25 12.5 19.4 0 12.5 0zM9.9 17.1V8.6l6.7 4.2-6.7 4.3z"/></symbol><symbol viewBox="0 0 18 18" id="print" xmlns="http://www.w3.org/2000/svg"><path d="M5.1 3.1H13v2.6H5.1zm8.5 3.3H4.4c-1.1 0-2 .9-2 2v3.9H5v2.6h7.9v-2.6h2.6v-4c.1-1-.8-1.9-1.9-1.9zm-2 7.2H6.4v-3.3h5.2v3.3z"/></symbol><symbol viewBox="0 0 512 512" id="refresh" xmlns="http://www.w3.org/2000/svg"><path d="M493.8 70.6c-11-1-20.7 7.1-21.7 18.1l-2.6 29.1C424.5 47.2 346.4 0 256 0 158.7 0 73 55.5 30.4 138.9c-5 9.8-1.1 21.9 8.7 26.9 9.8 5 21.9 1.1 26.9-8.7C102.1 86.5 174.4 40 256 40c74.4 0 141.5 38.7 180 99.4L407.4 119c-9-6.4-21.5-4.3-27.9 4.7-6.4 9-4.3 21.5 4.7 27.9l86.5 61.8c12.7 9 30.2.8 31.5-14.5l9.7-106.5c1-11-7.1-20.8-18.1-21.8zm-20.9 275.6c-9.8-5-21.9-1.1-26.9 8.7-36 70.5-108.3 117-189.9 117-74.4 0-141.5-38.7-180-99.4l28.5 20.4c9 6.4 21.5 4.3 27.9-4.7 6.4-9 4.3-21.5-4.7-27.9l-86.5-61.8c-12.5-8.9-30.1-.9-31.5 14.5L.1 419.6c-1 11 7.1 20.7 18.1 21.7 11 1 20.7-7.1 21.7-18.1l2.7-29.1C87.5 464.8 165.6 512 256 512c97.3 0 183-55.5 225.6-138.9 5-9.8 1.1-21.8-8.7-26.9z"/></symbol><symbol viewBox="0 0 16 16" id="search" xmlns="http://www.w3.org/2000/svg"><path d="M10.9 9.5c.7-1 1.1-2.2 1.1-3.5 0-3.3-2.7-6-6-6S0 2.7 0 6s2.7 6 6 6c1.3 0 2.5-.4 3.5-1.1l5.1 5.1 1.4-1.4-5.1-5.1zM6 10c-2.2 0-4-1.8-4-4s1.8-4 4-4 4 1.8 4 4-1.8 4-4 4z"/></symbol><symbol class="bisvg-inline--fa bifa-smile-wink bifa-w-16" viewBox="0 0 496 512" id="smile-wink-regular" xmlns="http://www.w3.org/2000/svg"><path fill="currentColor" d="M248 8C111 8 0 119 0 256s111 248 248 248 248-111 248-248S385 8 248 8zm0 448c-110.3 0-200-89.7-200-200S137.7 56 248 56s200 89.7 200 200-89.7 200-200 200zm117.8-146.4c-10.2-8.5-25.3-7.1-33.8 3.1-20.8 25-51.5 39.4-84 39.4s-63.2-14.3-84-39.4c-8.5-10.2-23.7-11.5-33.8-3.1-10.2 8.5-11.5 23.6-3.1 33.8 30 36 74.1 56.6 120.9 56.6s90.9-20.6 120.9-56.6c8.5-10.2 7.1-25.3-3.1-33.8zM168 240c17.7 0 32-14.3 32-32s-14.3-32-32-32-32 14.3-32 32 14.3 32 32 32zm160-60c-25.7 0-55.9 16.9-59.9 42.1-1.7 11.2 11.5 18.2 19.8 10.8l9.5-8.5c14.8-13.2 46.2-13.2 61 0l9.5 8.5c8.5 7.4 21.6.3 19.8-10.8-3.8-25.2-34-42.1-59.7-42.1z"/></symbol><symbol viewBox="0 0 21 20" id="support" xmlns="http://www.w3.org/2000/svg"><g fill="#7A6E67" fill-rule="evenodd"><path d="M16 7.5v4c0 2.3-1.4 4.3-3.4 5.1-.4-.4-1-.6-1.6-.6-.7 0-1.4.3-1.8.8-1-.2-1.9-.8-2.5-1.4-1-1-1.6-2.4-1.6-3.9v-4C5 4.5 7.5 2 10.5 2c3 0 5.5 2.5 5.5 5.5z"/><path d="M18.5 7H18c-.3-3.9-3.5-7-7.5-7S3.3 3.1 3 7h-.5C1.1 7 0 8.1 0 9.5v1C0 11.9 1.1 13 2.5 13H4V7.5C4 3.9 6.9 1 10.5 1S17 3.9 17 7.5v4.7c0 2.8-2 5.1-4.6 5.7-.3-.5-.8-.9-1.4-.9-.8 0-1.5.7-1.5 1.5S10.2 20 11 20c.7 0 1.3-.5 1.4-1.1 2.9-.5 5.2-2.9 5.5-5.9h.5c1.4 0 2.5-1.1 2.5-2.5v-1c.1-1.4-1-2.5-2.4-2.5z"/></g></symbol><symbol id="swift-logo" viewBox="0 0 49.7 49.7" xml:space="preserve" xmlns="http://www.w3.org/2000/svg"><style>.bkst0{fill-rule:evenodd;clip-rule:evenodd}</style><path class="bkst0" d="M49 18.7c-.3-1.2-.7-2.3-1.1-3.4-.2-.4-.3-.7-.5-1-.5-1.1-1.6-2.9-2.3-3.8-.2-.3-.4-.6-.7-.9l-1-1.2c-.5-.6-2.1-2.1-2.8-2.7-.6-.5-1.1-.9-1.7-1.3-3.4-2.3-7-3.7-11.1-4.2-.8-.1-1.5-.2-2.2-.2h-2.2c-.4.1-1 .1-1.4.1-2.1.2-4.2.8-6.1 1.5-.9.4-1.9.8-2.6 1.2-.2.2-.3.2-.5.3s-.3.2-.5.3-.3.2-.5.3c-1.1.7-1.5 1-2.7 1.9-.6.5-1.1 1-1.6 1.5L6.4 8.2c-.2.2-.2.3-.4.4-.2.3-.4.6-.7.9-.2.3-.4.5-.6.8l-1.2 1.8-.8 1.5c-.4.8-.9 1.9-1.2 2.7-.2.8-.5 1.5-.7 2.3s-.4 1.6-.5 2.5c-.2 1-.3 2-.3 3 0 1.8 0 2.5.2 4.4.4 2.8 1.3 5.5 2.6 7.9 1.8 3.5 4.5 6.6 7.7 8.8 1 .7 2.6 1.7 3.8 2.2 2.9 1.3 6.4 2.3 9.7 2.3 2.8 0 4.2 0 6.9-.7 2.2-.5 3.9-1.3 5.9-2.3 1-.5 2.8-1.7 3.6-2.4 1.4-1.2 2.2-1.9 3.4-3.4.5-.6.9-1.1 1.3-1.7l.9-1.3c.1-.2.2-.3.3-.5.9-1.5 1.3-2.5 1.9-4.1.3-.7.5-1.5.7-2.3 1.1-4.1 1.1-8.2.1-12.3zm-5.1-7.9c.4.6.8 1.1 1.1 1.7.4.6.7 1.2 1 1.8.1.2.1.3.2.5l.4 1c.1.2.1.4.2.5h-9c-.1-.2-.2-.8-.2-1-.1-.3-.2-.6-.3-1l-.6-1.8c-.4-1.1-.9-2.1-1.5-3.1l-.1-.2h7.6c0 .2 1.1 1.5 1.2 1.6zM28.8 1.5c1.5.2 3.1.7 4.5 1.2l2.2 1c.6.3 1.1.6 1.6.9 1.5.9 2.4 1.6 3.6 2.8.3.2.6.4.8.6h-7.2c-.5-.9-2.7-3.4-3.6-4.2l-.2-.2-.9-.8c-.2-.1-.3-.2-.5-.4-.2-.1-.3-.2-.5-.4l-1-.7c.4.1.8.2 1.2.2zm-3.3-.2c.1 0 .9.5 1.1.7.4.2 2.1 1.6 2.5 1.9l.5.4c.3.3.6.5.9.8L32.8 8h-7.3V1.3zm0 8h8.2c0 .2.1.2.2.4l1.1 2c.3.6.5 1.1.8 1.8.2.5.8 2.5.8 2.9H25.5V9.3zm-1.2-8V8H17c.4-.7 1.1-1.3 1.6-1.9l2.7-2.5c.7-.5 1.3-1.1 2-1.5.1-.2.8-.7 1-.8zm0 8v7H13.2c0-.4.4-1.6.5-2 .2-.7.4-1.2.7-1.8.4-1 .7-1.6 1.2-2.5.1-.1.4-.6.4-.7h8.3zM8.6 7.7l.3-.3c2.4-2.3 5.8-4.1 9-5.2.9-.3 2.1-.5 3.1-.7.4-.1.8-.1 1.2-.1-.4.3-1.3.9-1.9 1.4-.1.1-.2.1-.3.2-.5.4-2.1 1.9-2.4 2.3L17 6c-.3.3-1.4 1.7-1.6 2.2H8.3c.1-.3.2-.4.3-.5zm-4.9 6.6c.1-.1.1-.2.2-.4.1-.3.2-.5.4-.8l.9-1.5c.2-.1 1.5-2 1.8-2.3.1-.1.2-.1.5-.1h7.1c0 .1-.1.3-.2.4-.5.9-1 1.9-1.4 2.9-.2.6-.5 1.2-.6 1.8-.1.4-.5 1.6-.5 2H2.8c.2-.5.6-1.4.9-2zM7 40.4c0-.1-1.1-1.4-1.2-1.6l-2.1-3.5c-.3-.6-.6-1.5-.9-2h9.1c0 .5.3 1.5.5 2 .7 2.3 2.2 5.1 2.2 5.1H7zM19.9 48c-2.6-.6-5-1.5-7.3-2.9-.5-.3-1.1-.7-1.5-1-.2-.2-.5-.4-.7-.6-.1-.1-.2-.2-.4-.3-.1-.1-.1-.1-.2-.1l-.2-.2-.3-.3-.3-.3c-.2-.2-.5-.4-.6-.6h7.2c.4.7 1.2 1.6 1.8 2.3.1.2.3.3.4.4.6.8 2.6 2.5 3.5 3.2l1 .7c-.8 0-1.9-.2-2.4-.3zm4.4.3c-.5-.1-2.5-1.8-3.1-2.2l-.5-.4c-.5-.5-1.3-1.1-1.8-1.7l-1.6-1.9c-.1-.2-.2-.3-.4-.5h7.3l.1 6.7zm0-7.9H16c0-.1-.1-.2-.2-.4-.1-.1-.2-.3-.2-.4l-.9-1.6c-.6-1.1-1.4-3.5-1.6-4.7h11.1l.1 7.1zm8.5 1.3c-.5.8-1.7 2.1-2.4 2.8-.2.2-.3.3-.4.5l-1.4 1.2c-.5.4-2.7 2.1-3.1 2.2v-6.7h7.3zm-7.3-1.3v-7h11.1c0 .5-.6 2.3-.8 2.9-.1.3-.2.6-.4.9-.3.7-1 2.1-1.5 2.9-.1.1-.2.2-.2.4h-8.2v-.1zm14.6 2.5l-.7.6c-.2.2-.5.4-.7.6-3 2.1-6.3 3.6-9.9 4.2-.4.1-.8.1-1.2.1l2.4-1.8c.5-.4 2.3-2.2 2.9-3l1.1-1.4.2-.2c.1-.1.1-.1.2-.3h7.2c-.3.2-1.1.9-1.5 1.2zm6.6-9l-.4 1c-.5 1.1-1.6 3-2.4 4l-1.2 1.6h-7.6c1.2-2.2 1.5-2.6 2.2-5.1l.5-2h9c.1.1 0 .3-.1.5zm1.1-3.4c-.1.3-.1.6-.2.9-.1.2-.2.7-.2.8h-45l-.5-1.7c-.1-.6-.3-1.2-.4-1.8-.1-.6-.2-1.2-.2-1.9 0-.3-.1-.7-.1-1v-1c0-2.1.3-4.5.9-6.5.1-.3.2-.6.2-.8h45c.1.2.2.5.2.8.4 1.3.7 3.1.8 4.5v2c.2 1.9 0 3.9-.5 5.7z"/><path class="bkst0" d="M13.3 30c1.2 0 .9.2 1.4-.7l.9-1.7c.1-.2.1-.3.2-.4.6-1 1.3-2.6 1.9-3.6l.1-.1c0 .3.1.7.1.9 0 .4 0 .6.1.9l.4 4.2c0 .5-.2.4 1.2.4.1-.2 1.7-3.5 2-3.9.1-.2.2-.4.3-.7l1.7-3.3.3-.6c.2-.3.7-1.3.9-1.5.2-.2.2 0 .2-.3h-2c0 .7.4.3-.5 2.3-.1.3-.2.5-.4.8l-1.6 3.1c-.1.2-.3.7-.4.7 0-.8-.4-4-.4-5 0-.6-.1-1.1-.1-1.7h-.9l-3 5.5c-.1.2-.6 1.2-.7 1.2 0-1.3-.5-4.1-.5-5.6 0-.2 0-.5.1-.7.1-.3.3-.3.3-.6h-3c0 .4.2.2.4 1.1l.3 2.6c.1 1.1.7 6.2.7 6.7zm-6.8-8.1c0 2 3.9 2.2 3.9 4.9 0 .7-.1 1.1-.3 1.5s-.4.7-.7 1-.7.5-1.1.6c-1.1.4-2.5.3-3.7 0-.2-.1-.5-.2-.7-.2-.9-.4-.5-.4-.2-2 .1-.2 0-.3.2-.4 0 .6.3 1.2.6 1.5.5.6 1.2.6 2 .6.9 0 1.6-.6 1.8-1.3.3-1.5-1-2.1-1.8-2.8-.9-.7-1.9-1.4-1.9-2.8 0-.7.3-1.5.7-1.8.4-.4.9-.8 1.5-1 .5-.2 1-.2 1.6-.3.5 0 2 .2 2.5.5 0 .3-.4 1.6-.4 1.8h-.2c0-.4-.3-.9-.6-1.2-.2-.1-.3-.2-.6-.3-1.2-.3-2.6.2-2.6 1.7zm25.9-1.7c0 .6-1.1 4.3-1.3 5-.3 1.1-.7 2.6-1.1 3.7-.1.4-.3.8-.7.9v.2h3.1c0-.6-.5-.1.4-2.8l.6-2.1h1.7c.5.1.9.2 1 .7.3 0 .2-.2.4-.9.1-.3.2-.7.3-1-.3 0-.2.2-.6.3-.4.1-2.1.1-2.6.1l.9-3.2c.2-.9.4-.7 2-.7.4 0 .8.2 1 .4.6.6.3.7.7.7 0-.2.2-.7.3-1 .1-.2.1-.3.2-.5s.2-.4 0-.4h-6.2c-.3.3-.1.4-.1.6zm6.2 1.3c.4 0 .2-.4 1.1-.9.6-.3 1.1-.2 1.9-.2l-2.1 7.3c-.2.6-.5 2-1 2.1v.2h3c0-.6-.4 0 .1-1.8.1-.4.2-.7.3-1.1l.6-2.2c.4-1.3.8-2.8 1.2-4.2.1-.3 0-.2 1-.2.7 0 1.3.5 1.5 1.1.3 0 .2-.3.4-.8.1-.2.3-.8.3-1h-7.5c-.2 0-.3.5-.4.9-.2.1-.4.5-.4.8zm-11.9-1.4c0 .6 0 .4-.1 1l-.5 1.8c-.2.8-1.7 6.2-2.1 6.6-.2.3-.3.2-.4.4h3.1c0-.6-.4-.1.1-1.9l.3-1.2c.2-.8.5-1.6.7-2.4.3-1.1.7-2.6 1.1-3.7.1-.4.3-.8.7-.9v-.2c-4.1 0-2.9-.1-2.9.5z"/></symbol><symbol viewBox="0 0 49.7 49.7" id="swift-logo-new-mark" xmlns="http://www.w3.org/2000/svg"><path d="M24.9 0c-4.8 0-9.7 1.5-13.7 4.1C7.1 6.9 4 10.8 2.1 15.3S-.3 24.8.7 29.6 4 38.8 7.4 42.4c3.5 3.5 7.9 5.8 12.6 6.8s9.8.5 14.2-1.4c4.5-1.9 8.4-5 11.1-9.2 2.7-4.1 4.1-8.9 4.1-13.8 0-6.6-2.6-12.8-7.2-17.5C37.7 2.7 31.4 0 24.9 0zM2 25.7h7.6c.1 3.5.6 6.9 1.6 10.2H4.8C3.1 32.8 2.1 29.2 2 25.7zM25.8 12V1.9c4.3.5 8.1 4.3 10.4 10.2L25.8 12zm11 1.7c1.1 3.3 1.6 6.7 1.7 10.2H25.8V13.7h11zM24 1.9v10.2H13.6C15.9 6.2 19.7 2.3 24 1.9zm0 11.8v10.2H11.4c.1-3.4.6-6.9 1.6-10.2h11zM9.6 23.9H2c.1-3.6 1.1-7 2.8-10.2h6.3c-.9 3.3-1.4 6.8-1.5 10.2zm1.8 1.8H24v10.2H13c-1-3.3-1.6-6.8-1.6-10.2zM24 37.6v10.2c-4.3-.5-8.1-4.3-10.4-10.2H24zm1.8 10.2V37.6h10.4c-2.3 5.8-6.1 9.7-10.4 10.2zm0-11.9V25.7h12.6c-.1 3.5-.6 6.9-1.7 10.2H25.8zm14.4-10.2h7.6c-.1 3.6-1.1 7-2.8 10.2h-6.3c.9-3.3 1.4-6.8 1.5-10.2zm0-1.8c-.1-3.5-.6-6.9-1.6-10.2H45c1.7 3.2 2.7 6.6 2.8 10.2h-7.6zM43.9 12H38c-.5-1.6-1.2-3.1-2.1-4.5-1-1.7-2.2-3.2-3.7-4.4 4.9 1.5 8.9 4.7 11.7 8.9zM17.6 3c-1.4 1.3-2.7 2.8-3.7 4.4-.9 1.5-1.6 3-2.2 4.5H5.8C8.7 7.8 12.7 4.6 17.6 3zM5.8 37.6h5.9c.6 1.6 1.3 3.1 2.2 4.5 1 1.7 2.2 3.2 3.7 4.4-4.9-1.5-8.9-4.7-11.8-8.9zm26.4 9c1.4-1.3 2.7-2.8 3.7-4.4.9-1.5 1.6-3 2.2-4.5H44c-2.9 4.2-7 7.3-11.8 8.9z"/></symbol><symbol viewBox="0 0 120 120" id="twitter" xmlns="http://www.w3.org/2000/svg"><path d="M107.7 35.6c.1 1.1.1 2.1.1 3.2 0 32.5-24.8 70-70 70-13.9 0-26.9-4-37.8-11 2 .1 3.9.2 5.9.2 11.5 0 22.1-3.9 30.5-10.5-10.8-.2-19.9-7.3-23-17.1 1.5.2 3 .4 4.6.4 2.2 0 4.4-.3 6.5-.8C13.3 67.7 4.9 57.8 4.9 45.8v-.3c3.3 1.8 7.1 3 11.1 3.1-6.6-4.4-11-12-11-20.5 0-4.6 1.2-8.8 3.3-12.4C20.4 30.6 38.6 40.4 59 41.4c-.4-1.8-.6-3.7-.6-5.6 0-13.5 11-24.6 24.6-24.6 7.1 0 13.5 3 18 7.8 5.6-1.1 10.9-3.1 15.6-5.9-1.8 5.7-5.7 10.5-10.8 13.6 4.9-.5 9.7-1.9 14.2-3.8-3.3 4.8-7.5 9.2-12.3 12.7z"/></symbol><symbol viewBox="0 0 1792 1792" id="warning" xmlns="http://www.w3.org/2000/svg"><path d="M1698.2 1215.9l-542.5-939.4C1102 181.9 1005 125.8 896.3 125.8c-108.8 0-205.8 56.5-259.5 150.3L93.7 1216.6c-54 94.6-53.7 207.1 1 301 54 92.8 150.7 148.6 258.8 148.6H1437c108.4 0 205.8-56.5 260.5-151 54.4-93.9 54.8-205.8.7-299.3zm-118.4 231.4c-30.1 51.9-83.5 82.8-143.1 82.8H353.2c-58.9 0-111.9-30.1-141.3-81.1-29.8-51.6-30.1-113.3-.3-165.2l543.1-940.1c29.4-51.6 82.1-82.1 141.7-82.1 59.2 0 112.2 30.8 141.7 82.4l542.8 940.1c29 50.6 28.7 111.6-1.1 163.2z"/><path d="M980.5 1296.9c2.1 45-39.1 84.5-84.5 84.5-47.1 0-86.6-39.5-86.6-86.6s39.5-86.6 86.6-86.6c47.4.1 86.6 39.2 84.5 88.7zm2.1-604.4c-2.1 43.3-5.9 86.6-8 129.9-3.8 66.9-8 133.7-11.8 200.6-2.1 21.8-2.1 41.6-2.1 63-1.7 35.7-29.4 63-64.8 63-35.3 0-62.7-25.6-64.8-61-5.9-104.3-11.8-206.5-17.7-310.7-2.1-27.4-3.8-55.1-5.9-82.4 0-45.4 25.6-82.8 66.8-94.6 41.2-9.7 82.4 10.1 100.1 48.8 6.1 14 8.2 27.8 8.2 43.4z"/></symbol><symbol viewBox="0 0 120 120" id="youtube" xmlns="http://www.w3.org/2000/svg"><path d="M116.6 30.8c-1.1-6.1-6.4-10.6-12.5-12-9.2-1.9-26.2-3.3-44.5-3.3-18.4 0-35.6 1.4-44.8 3.3-6.1 1.4-11.4 5.6-12.5 12C1.1 37.7 0 47.5 0 60s1.1 22.3 2.5 29.2c1.1 6.1 6.4 10.6 12.5 12 9.7 1.9 26.4 3.3 44.8 3.3s35.1-1.4 44.8-3.3c6.1-1.4 11.4-5.6 12.5-12 1.1-7 2.5-17 2.8-29.2-.5-12.5-1.9-22.3-3.3-29.2zM44.5 79.5v-39l34 19.5-34 19.5z"/></symbol></svg>